<svg width="96" height="97" viewBox="0 0 96 97" fill="none" xmlns="http://www.w3.org/2000/svg">
<path d="M68.5617 51.6113C71.9299 51.6266 74.6523 54.3806 74.6523 57.7726C74.6523 61.1126 71.9445 64.0166 68.6291 64.1041L63.2908 64.1041C58.699 59.4798 62.0449 51.6113 68.5617 51.6113Z" fill="url(#paint0_linear_269_12251)"/>
<path d="M50.8848 69.2863C50.9002 72.6545 53.6764 75.377 57.0957 75.377C60.4626 75.377 63.39 72.6691 63.4782 69.3537L63.4782 65.2343C63.4782 65.2343 62.9301 58.1912 64.3556 55.3987C65.5424 53.0737 68.5574 51.6103 68.5574 51.6103L58.8848 51.6103C54.4665 51.6103 50.8848 55.192 50.8848 59.6103L50.8848 69.2863Z" fill="#0694A2"/>
<path d="M26.8094 44.9082C23.4412 44.8929 20.7188 42.1389 20.7188 38.7469C20.7188 35.4069 23.4266 32.5029 26.742 32.4155L32.0803 32.4155C36.6721 37.0397 33.3262 44.9082 26.8094 44.9082Z" fill="url(#paint1_linear_269_12251)"/>
<path d="M44.4863 27.5379C44.4712 24.1697 41.7428 21.4473 38.3825 21.4473C35.0736 21.4473 32.1967 24.1551 32.11 27.4706V32.5041C32.11 32.5041 32.6486 38.3284 31.2478 41.1208C30.0814 43.4458 27.1184 44.9092 27.1184 44.9092L36.4863 44.9092C40.9046 44.9092 44.4863 41.3275 44.4863 36.9092V27.5379Z" fill="#0694A2"/>
<path d="M44.4082 69.3982C44.3931 72.7455 41.6753 75.4512 38.3279 75.4512C35.0318 75.4512 32.166 72.76 32.0797 69.4651L32.0797 64.1674C36.6292 59.6179 44.4082 62.9641 44.4082 69.3982Z" fill="url(#paint2_linear_269_12251)"/>
<path d="M26.8094 51.6113C23.4412 51.6267 20.7188 54.4029 20.7188 57.8223C20.7188 61.1892 23.4266 64.1166 26.742 64.2047L32.0803 64.2047C32.0803 64.2047 37.9045 63.6567 40.697 65.0821C43.022 66.269 44.4854 69.284 44.4854 69.284L44.4854 59.6113C44.4854 55.1931 40.9037 51.6113 36.4854 51.6113L26.8094 51.6113Z" fill="#7EDCE2"/>
<path d="M51.0195 27.4104C51.0346 24.0631 53.7524 21.3574 57.0998 21.3574C60.3959 21.3574 63.2617 24.0486 63.3481 27.3435L63.3481 32.6412C58.7985 37.1907 51.0195 33.8444 51.0195 27.4104Z" fill="url(#paint3_linear_269_12251)"/>
<path d="M68.6183 45.1973C71.9865 45.1819 74.709 42.4057 74.709 38.9863C74.709 35.6194 72.0011 32.692 68.6857 32.6039L63.3475 32.6039C63.3475 32.6039 57.5232 33.1519 54.7308 31.7265C52.4057 30.5396 50.9423 27.5246 50.9423 27.5246L50.9423 37.1973C50.9423 41.6155 54.524 45.1973 58.9423 45.1973L68.6183 45.1973Z" fill="#7EDCE2"/>
<defs>
<linearGradient id="paint0_linear_269_12251" x1="75.9589" y1="55.8895" x2="52.3161" y2="63.9693" gradientUnits="userSpaceOnUse">
<stop stop-color="#7EDCE2"/>
<stop offset="1" stop-color="#D5F5F6"/>
</linearGradient>
<linearGradient id="paint1_linear_269_12251" x1="19.4122" y1="40.63" x2="43.055" y2="32.5503" gradientUnits="userSpaceOnUse">
<stop stop-color="#7EDCE2"/>
<stop offset="1" stop-color="#D5F5F6"/>
</linearGradient>
<linearGradient id="paint2_linear_269_12251" x1="40.1863" y1="76.7493" x2="32.1163" y2="53.2932" gradientUnits="userSpaceOnUse">
<stop stop-color="#0694A2"/>
<stop offset="1" stop-color="#D5F5F6"/>
</linearGradient>
<linearGradient id="paint3_linear_269_12251" x1="55.2415" y1="20.0593" x2="63.3114" y2="43.5154" gradientUnits="userSpaceOnUse">
<stop stop-color="#0694A2"/>
<stop offset="1" stop-color="#D5F5F6"/>
</linearGradient>
</defs>
</svg>
