<svg fill="currentColor" xmlns="http://www.w3.org/2000/svg" width="24" height="24" viewBox="0 0 8.467 8.467" id="medicine-jar">
  <path d="m 2.646101,289.06269 c -0.4351618,0 -0.7947835,0.35807 -0.7947835,0.79323 -1.077e-4,0.35368 0,0.70493 0,1.05833 3.51e-5,0.14652 0.1191029,0.26512 0.2656168,0.26459 v 0.001 h 0.2635499 v 0.52917 c -0.2630764,7.6e-4 -0.5380669,8.4e-4 -0.7968506,-0.004 -0.1461235,0.002 -0.2631906,0.12156 -0.2614828,0.26768 v 3.70469 c 0,0.43517 0.3596218,0.79323 0.7947835,0.79323 h 4.2322998 c 0.4351624,0 0.7953005,-0.35806 0.7953002,-0.79323 V 291.9731 C 7.144442,291.82114 7.0166858,291.70047 6.864965,291.70904 H 6.0856843 v -0.52917 h 0.2635498 v -10e-4 c 0.1465138,5.3e-4 0.2655816,-0.11807 0.2656168,-0.26459 v -1.05833 c 0,-0.43516 -0.3596211,-0.79323 -0.7947834,-0.79323 z m 0,0.52916 h 3.1739665 c 0.1511556,0 0.2656168,0.11293 0.2656168,0.26407 v 0.79478 H 2.3804842 c 2.132e-4,-0.26579 0,-0.52856 0,-0.79478 0,-0.15114 0.1144625,-0.26407 0.2656168,-0.26407 z m 0.2635498,1.58802 h 2.6468668 v 0.52917 H 2.9096508 Z m -1.0583333,1.05885 c 1.5878445,0 3.175689,0 4.7635334,0 v 3.43907 c 0,0.15116 -0.1144611,0.26406 -0.2656168,0.26406 H 2.1169343 c -0.1511541,0 -0.2656168,-0.1129 -0.2656168,-0.26406 z m 2.3786661,1.05265 c -0.00898,6e-5 -0.017947,5.8e-4 -0.026872,0.002 -0.135495,0.0154 -0.2370664,0.13132 -0.2346111,0.26767 v 0.26407 H 3.704951 c -0.3607869,-0.008 -0.3607869,0.53727 0,0.52917 h 0.2635499 v 0.26561 c -0.008,0.36069 0.5371692,0.36069 0.5291667,0 v -0.26561 h 0.2635498 c 0.3607869,0.008 0.3607869,-0.53727 0,-0.52917 H 4.4976676 v -0.26407 c 0.00262,-0.14915 -0.1185154,-0.27099 -0.267684,-0.26923 z" color="#000" font-family="sans-serif" font-weight="400" overflow="visible" paint-order="stroke fill markers" style="line-height:normal;font-variant-ligatures:normal;font-variant-position:normal;font-variant-caps:normal;font-variant-numeric:normal;font-variant-alternates:normal;font-feature-settings:normal;text-indent:0;text-align:start;text-decoration-line:none;text-decoration-style:solid;text-decoration-color:#000;text-transform:none;text-orientation:mixed;shape-padding:0;isolation:auto;mix-blend-mode:normal" transform="translate(0 -288.533)"></path>
</svg>
